# xmcd
#
# Track frame offsets:
#	150
#	18687
#	38782
#	57644
#	72448
#	92450
#	108407
#	120568
#	144142
#	163856
#	180257
#	192580
#	204304
#
# Disc length: 2973 seconds
#
# Revision: 1
# Processed by: cddbd v1.5.1PL0 Copyright (c) Steve Scherf et al.
# Submitted via: audiograbber 1.83.01
#
DISCID=b30b9b0d
DTITLE=Boris Novkovic - Ostvaren san
DYEAR=2004
DGENRE=Pop/Ballad
TTITLE0=Ostvaren san
TTITLE1=Njoj
TTITLE2=Citam te ko knjigu
TTITLE3=Blagoslov
TTITLE4=To su bili dani
TTITLE5=Zgrabi svoju srecu
TTITLE6=Nije fer
TTITLE7=Ti i ja
TTITLE8=Minut duze
TTITLE9=Da li si to ti
TTITLE10=Pjevam o tebi
TTITLE11=Prezalit cu
TTITLE12=Fulfilled dream
EXTD=
EXTT0=
EXTT1=
EXTT2=
EXTT3=
EXTT4=
EXTT5=
EXTT6=
EXTT7=
EXTT8=
EXTT9=
EXTT10=
EXTT11=
EXTT12=
PLAYORDER=
